Exact Audio Copy V0.99 prebeta 1 from 25. May 2007

EAC 抓取日志文件从26. 二月 2011, 23:34

张学友 / 20世纪中华歌坛名人百集珍藏版

使用驱动器  ：PIONEER DVD-RW  DVR-115   Adapter: 0  ID: 0

读取模式     : 保护
使用精确流   : 是
废除音频缓冲 : 是
使用 C2 指针 : 否

组合读/写偏移校正              : 48
读取 Lead-In 和 Lead-Out       : 否
用静音填充抓取中丢失偏移的采样 : 是
去除首尾静音块                 : 否
已用接口                       : Win NT 及 2000 本地 Win32 接口

所用输出格式 : 内部 WAV 函数
样本格式     : 44.100 Hz;16 Bit;立体声
使用压缩偏移 : 48


被抓轨 CD 的 TOC

     音轨 |   开始   |   长度   | 起始扇区 | 结尾扇区 
    --------------------------------------------------
       1  |  0:00.00 |  4:31.65 |       0  |   20389  
       2  |  4:31.65 |  4:58.17 |   20390  |   42756  
       3  |  9:30.07 |  4:12.53 |   42757  |   61709  
       4  | 13:42.60 |  3:48.52 |   61710  |   78861  
       5  | 17:31.37 |  4:16.33 |   78862  |   98094  
       6  | 21:47.70 |  2:46.15 |   98095  |  110559  
       7  | 24:34.10 |  4:43.57 |  110560  |  131841  
       8  | 29:17.67 |  4:03.48 |  131842  |  150114  
       9  | 33:21.40 |  4:21.20 |  150115  |  169709  
      10  | 37:42.60 |  4:32.42 |  169710  |  190151  
      11  | 42:15.27 |  3:46.48 |  190152  |  207149  
      12  | 46:02.00 |  4:22.55 |  207150  |  226854  
      13  | 50:24.55 |  4:02.27 |  226855  |  245031  
      14  | 54:27.07 |  4:45.10 |  245032  |  266416  


范围状态及错误

已选择范围

     文件名 E:\20世纪中华歌坛名人百集珍藏版-张学友[lwg188原创]\张学友 - 20世纪中华歌坛名人百集珍藏版.wav

     峰值电平 100.0 %
     范围质量 100.0 %
     复制 CRC A8EE005A
     复制成功

没有错误发生

状态报告结尾
